<?xml version="1.0" encoding="UTF-8" standalone="no"?><svg xmlns="http://www.w3.org/2000/svg" xmlns:xlink="http://www.w3.org/1999/xlink" contentScriptType="application/ecmascript" contentStyleType="text/css" height="148px" preserveAspectRatio="none" style="width:372px;height:148px;" version="1.1" viewBox="0 0 372 148" width="372px" zoomAndPan="magnify"><defs/><g><text fill="#000000" font-family="sans-serif" font-size="12" lengthAdjust="spacingAndGlyphs" textLength="33" x="6" y="31.7344">From:</text><rect fill="#EEEEEE" height="17.1328" style="stroke: #000000; stroke-width: 1.0;" width="79" x="98" y="20.1328"/><text fill="#000000" font-family="sans-serif" font-size="12" lengthAdjust="spacingAndGlyphs" textLength="52" x="100" y="33.7344">Toulouse</text><line style="stroke: #000000; stroke-width: 1.0;" x1="166" x2="166" y1="20.1328" y2="37.2656"/><polygon fill="#000000" points="169,26.1328,175,26.1328,172,32.2656" style="stroke: #000000; stroke-width: 1.0;"/><rect fill="#EEEEEE" height="18.1328" rx="5" ry="5" style="stroke: #000000; stroke-width: 2.5;" width="52" x="285.5" y="22.6328"/><text fill="#000000" font-family="sans-serif" font-size="12" lengthAdjust="spacingAndGlyphs" textLength="27" x="293" y="36.2344">Help</text><path d="M326,27.7656 C325.448,27.7656 325,28.2136 325,28.7656 C325,29.3176 325.448,29.7656 326,29.7656 C326.552,29.7656 327,29.3176 327,28.7656 C327,28.2136 326.552,27.7656 326,27.7656 M324.5,30.2656 C323.67,30.2656 323,30.9356 323,31.7656 L324,31.7656 C324,31.4856 324.22,31.2656 324.5,31.2656 C324.78,31.2656 325,31.4856 325,31.7656 C325,32.0456 324,33.4056 324,34.2656 C324,35.1256 324.67,35.7656 325.5,35.7656 C326.33,35.7656 327,35.0956 327,34.2656 L326,34.2656 C326,34.5456 325.78,34.7656 325.5,34.7656 C325.22,34.7656 325,34.5456 325,34.2656 C325,33.9056 326,32.4256 326,31.7656 C326,30.9556 325.33,30.2656 324.5,30.2656 " fill="#000000" style="stroke: ; stroke-width: 0.0; stroke-dasharray: ;"/><text fill="#000000" font-family="sans-serif" font-size="12" lengthAdjust="spacingAndGlyphs" textLength="19" x="6" y="56.8672">To:</text><rect fill="#EEEEEE" height="17.1328" style="stroke: #000000; stroke-width: 1.0;" width="79" x="98" y="45.2656"/><text fill="#000000" font-family="sans-serif" font-size="12" lengthAdjust="spacingAndGlyphs" textLength="28" x="100" y="58.8672">Paris</text><line style="stroke: #000000; stroke-width: 1.0;" x1="166" x2="166" y1="45.2656" y2="62.3984"/><polygon fill="#000000" points="169,51.2656,175,51.2656,172,57.3984" style="stroke: #000000; stroke-width: 1.0;"/><text fill="#000000" font-family="sans-serif" font-size="12" lengthAdjust="spacingAndGlyphs" textLength="90" x="6" y="77">No earlier than:</text><text fill="#000000" font-family="sans-serif" font-size="12" lengthAdjust="spacingAndGlyphs" textLength="76" x="101" y="77">18/02/2019</text><path d="M182,68.5313 L182,70.5313 L189,70.5313 L189,68.5313 L182,68.5313 M182,71.5313 L182,76.4373 C182,76.4973 182.034,76.5313 182.094,76.5313 L188.907,76.5313 C188.967,76.5313 189.001,76.4973 189.001,76.4373 L189.001,71.5313 L182.001,71.5313 M183.001,72.5313 L184.001,72.5313 L184.001,73.5313 L183.001,73.5313 L183.001,72.5313 M185.001,72.5313 L186.001,72.5313 L186.001,73.5313 L185.001,73.5313 L185.001,72.5313 M187.001,72.5313 L188.001,72.5313 L188.001,73.5313 L187.001,73.5313 L187.001,72.5313 M183.001,74.5313 L184.001,74.5313 L184.001,75.5313 L183.001,75.5313 L183.001,74.5313 M185.001,74.5313 L186.001,74.5313 L186.001,75.5313 L185.001,75.5313 L185.001,74.5313 " fill="#000000" style="stroke: ; stroke-width: 0.0; stroke-dasharray: ;"/><line style="stroke: #000000; stroke-width: 1.0;" x1="99" x2="206" y1="79.5313" y2="79.5313"/><line style="stroke: #000000; stroke-width: 1.0;" x1="99" x2="99" y1="76.5313" y2="78.5313"/><line style="stroke: #000000; stroke-width: 1.0;" x1="206" x2="206" y1="76.5313" y2="78.5313"/><text fill="#000000" font-family="sans-serif" font-size="12" lengthAdjust="spacingAndGlyphs" textLength="79" x="6" y="95.1328">No later than:</text><text fill="#000000" font-family="sans-serif" font-size="12" lengthAdjust="spacingAndGlyphs" textLength="76" x="101" y="95.1328">19/02/2019</text><path d="M182,86.6641 L182,88.6641 L189,88.6641 L189,86.6641 L182,86.6641 M182,89.6641 L182,94.5701 C182,94.6301 182.034,94.6641 182.094,94.6641 L188.907,94.6641 C188.967,94.6641 189.001,94.6301 189.001,94.5701 L189.001,89.6641 L182.001,89.6641 M183.001,90.6641 L184.001,90.6641 L184.001,91.6641 L183.001,91.6641 L183.001,90.6641 M185.001,90.6641 L186.001,90.6641 L186.001,91.6641 L185.001,91.6641 L185.001,90.6641 M187.001,90.6641 L188.001,90.6641 L188.001,91.6641 L187.001,91.6641 L187.001,90.6641 M183.001,92.6641 L184.001,92.6641 L184.001,93.6641 L183.001,93.6641 L183.001,92.6641 M185.001,92.6641 L186.001,92.6641 L186.001,93.6641 L185.001,93.6641 L185.001,92.6641 " fill="#000000" style="stroke: ; stroke-width: 0.0; stroke-dasharray: ;"/><line style="stroke: #000000; stroke-width: 1.0;" x1="99" x2="206" y1="97.6641" y2="97.6641"/><line style="stroke: #000000; stroke-width: 1.0;" x1="99" x2="99" y1="94.6641" y2="96.6641"/><line style="stroke: #000000; stroke-width: 1.0;" x1="206" x2="206" y1="94.6641" y2="96.6641"/><path d="M10.094,104.7969 C10.034,104.7969 9.989,104.8409 9.969,104.8909 L7.031,111.7039 L7,111.8919 L7,112.7049 C7,112.7649 7.034,112.7989 7.094,112.7989 L13.907,112.7989 C13.967,112.7989 14.001,112.7649 14.001,112.7049 L14.001,111.8919 L13.97,111.7039 L11.032,104.8909 C11.012,104.8409 10.967,104.7969 10.907,104.7969 L10.094,104.7969 M10,107.7969 L11,107.7969 L11,109.7969 L10,109.7969 L10,107.7969 M10,110.7969 L11,110.7969 L11,111.7969 L10,111.7969 L10,110.7969 " fill="#000000" style="stroke: ; stroke-width: 0.0; stroke-dasharray: ;"/><text fill="#000000" font-family="sans-serif" font-size="12" lengthAdjust="spacingAndGlyphs" textLength="0" x="20" y="113.2656"/><text fill="#000000" font-family="sans-serif" font-size="12" font-weight="bold" lengthAdjust="spacingAndGlyphs" textLength="34" x="20" y="113.2656">Error!</text><text fill="#000000" font-family="sans-serif" font-size="12" font-weight="bold" lengthAdjust="spacingAndGlyphs" textLength="175" x="102" y="113.2656">Choose a date in the future!</text><rect fill="#EEEEEE" height="18.1328" rx="5" ry="5" style="stroke: #000000; stroke-width: 2.5;" width="44" x="8.5" y="120.2969"/><text fill="#000000" font-family="sans-serif" font-size="12" lengthAdjust="spacingAndGlyphs" textLength="30" x="15.5" y="133.8984">Clear</text><rect fill="#EEEEEE" height="18.1328" rx="5" ry="5" style="stroke: #000000; stroke-width: 2.5;" width="140" x="100.5" y="120.2969"/><text fill="#000000" font-family="sans-serif" font-size="12" lengthAdjust="spacingAndGlyphs" textLength="85" x="121" y="133.8984">Reserve a Seat</text><path d="M214,125.4297 L214,126.4297 L218,126.4297 L218,131.4297 L214,131.4297 L214,132.4297 L219,132.4297 L219,125.4297 L214,125.4297 M215,127.4297 L215,128.4297 L211,128.4297 L211,129.4297 L215,129.4297 L215,130.4297 L217,128.9297 L215,127.4297 " fill="#000000" style="stroke: ; stroke-width: 0.0; stroke-dasharray: ;"/><rect fill="#EEEEEE" height="18.1328" rx="5" ry="5" style="stroke: #000000; stroke-width: 2.5;" width="76" x="285.5" y="120.2969"/><text fill="#000000" font-family="sans-serif" font-size="12" lengthAdjust="spacingAndGlyphs" textLength="38" x="297.5" y="133.8984">Cancel</text><path d="M344.5,125.4297 C342.29,125.4297 340.5,127.2197 340.5,129.4297 C340.5,131.6397 342.29,133.4297 344.5,133.4297 C346.71,133.4297 348.5,131.6397 348.5,129.4297 C348.5,127.2197 346.71,125.4297 344.5,125.4297 M343,127.2107 L344.5,128.7107 L346,127.2107 L346.719,127.9297 L345.219,129.4297 L346.719,130.9297 L346,131.6487 L344.5,130.1487 L343,131.6487 L342.281,130.9297 L343.781,129.4297 L342.281,127.9297 L343,127.2107 " fill="#000000" style="stroke: ; stroke-width: 0.0; stroke-dasharray: ;"/><line style="stroke: #000000; stroke-width: 1.0;" x1="5" x2="97" y1="12.0664" y2="12.0664"/><line style="stroke: #000000; stroke-width: 1.0;" x1="97" x2="282" y1="12.0664" y2="12.0664"/><line style="stroke: #000000; stroke-width: 1.0;" x1="282" x2="365" y1="12.0664" y2="12.0664"/><line style="stroke: #000000; stroke-width: 1.0;" x1="5" x2="97" y1="141.9297" y2="141.9297"/><line style="stroke: #000000; stroke-width: 1.0;" x1="97" x2="282" y1="141.9297" y2="141.9297"/><line style="stroke: #000000; stroke-width: 1.0;" x1="282" x2="365" y1="141.9297" y2="141.9297"/><line style="stroke: #000000; stroke-width: 1.0;" x1="5" x2="5" y1="12.0664" y2="44.2656"/><line style="stroke: #000000; stroke-width: 1.0;" x1="365" x2="365" y1="82.5313" y2="100.6641"/><line style="stroke: #000000; stroke-width: 1.0;" x1="365" x2="365" y1="64.3984" y2="82.5313"/><line style="stroke: #000000; stroke-width: 1.0;" x1="365" x2="365" y1="44.2656" y2="64.3984"/><line style="stroke: #000000; stroke-width: 1.0;" x1="365" x2="365" y1="12.0664" y2="44.2656"/><line style="stroke: #000000; stroke-width: 1.0;" x1="5" x2="5" y1="116.7969" y2="141.9297"/><line style="stroke: #000000; stroke-width: 1.0;" x1="5" x2="5" y1="100.6641" y2="116.7969"/><line style="stroke: #000000; stroke-width: 1.0;" x1="5" x2="5" y1="82.5313" y2="100.6641"/><line style="stroke: #000000; stroke-width: 1.0;" x1="5" x2="5" y1="64.3984" y2="82.5313"/><line style="stroke: #000000; stroke-width: 1.0;" x1="365" x2="365" y1="116.7969" y2="141.9297"/><line style="stroke: #000000; stroke-width: 1.0;" x1="5" x2="5" y1="44.2656" y2="64.3984"/><line style="stroke: #000000; stroke-width: 1.0;" x1="365" x2="365" y1="100.6641" y2="116.7969"/><rect fill="#FFFFFF" height="14.1328" style="stroke: #FFFFFF; stroke-width: 1.0;" width="101" x="11" y="5"/><text fill="#000000" font-family="sans-serif" font-size="12" lengthAdjust="spacingAndGlyphs" textLength="101" x="11" y="16.6016">Flight Reservation</text></g></svg>