<?xml version="1.0" encoding="UTF-8" standalone="no"?><svg xmlns="http://www.w3.org/2000/svg" xmlns:xlink="http://www.w3.org/1999/xlink" contentScriptType="application/ecmascript" contentStyleType="text/css" height="199px" preserveAspectRatio="none" style="width:355px;height:199px;background:#FFFFFF;" version="1.1" viewBox="0 0 355 199" width="355px" zoomAndPan="magnify"><defs><filter height="300%" id="fo8hnl71teret" width="300%" x="-1" y="-1"><feGaussianBlur result="blurOut" stdDeviation="2.0"/><feColorMatrix in="blurOut" result="blurOut2" type="matrix" values="0 0 0 0 0 0 0 0 0 0 0 0 0 0 0 0 0 0 .4 0"/><feOffset dx="4.0" dy="4.0" in="blurOut2" result="blurOut3"/><feBlend in="SourceGraphic" in2="blurOut3" mode="normal"/></filter></defs><g><!--MD5=[217537f29afe639f347895754667a4fd]
class p--><rect codeLine="11" fill="#FEFECE" filter="url(#fo8hnl71teret)" height="65.9102" id="p" style="stroke:#A80036;stroke-width:1.5;" width="111" x="126.5" y="7"/><ellipse cx="156.35" cy="23" fill="#A9DCDF" rx="11" ry="11" style="stroke:#A80036;stroke-width:1.0;"/><path d="M156.2133,18.3481 L155.0595,23.4199 L157.3754,23.4199 Z M154.7191,16.1069 L157.7157,16.1069 L161.0609,28.5 L158.6122,28.5 L157.8485,25.437 L154.5697,25.437 L153.8227,28.5 L151.3739,28.5 Z " fill="#000000"/><text fill="#000000" font-family="sans-serif" font-size="12" font-style="italic" lengthAdjust="spacing" textLength="46" x="173.65" y="27.5352">Pizzeria</text><line style="stroke:#A80036;stroke-width:1.5;" x1="127.5" x2="236.5" y1="39" y2="39"/><text fill="#000000" font-family="sans-serif" font-size="11" font-style="italic" lengthAdjust="spacing" textLength="63" x="132.5" y="53.6348">creerPizza()</text><text fill="#000000" font-family="sans-serif" font-size="11" lengthAdjust="spacing" textLength="99" x="132.5" y="66.5898">commanderPizza()</text><!--MD5=[f2291d033c38fbe707e149ea6a2354e0]
class PizzeriaStyleStrasbourg--><rect codeLine="16" fill="#FEFECE" filter="url(#fo8hnl71teret)" height="52.9551" id="PizzeriaStyleStrasbourg" style="stroke:#A80036;stroke-width:1.5;" width="166" x="7" y="133"/><ellipse cx="22" cy="149" fill="#ADD1B2" rx="11" ry="11" style="stroke:#A80036;stroke-width:1.0;"/><path d="M24.4731,155.1431 Q23.8921,155.4419 23.2529,155.5913 Q22.6138,155.7407 21.9082,155.7407 Q19.4014,155.7407 18.0815,154.0889 Q16.7617,152.437 16.7617,149.3159 Q16.7617,146.1865 18.0815,144.5347 Q19.4014,142.8828 21.9082,142.8828 Q22.6138,142.8828 23.2612,143.0322 Q23.9087,143.1816 24.4731,143.4805 L24.4731,146.2031 Q23.8423,145.6221 23.2488,145.3523 Q22.6553,145.0825 22.0244,145.0825 Q20.6797,145.0825 19.9949,146.1492 Q19.3101,147.2158 19.3101,149.3159 Q19.3101,151.4077 19.9949,152.4744 Q20.6797,153.541 22.0244,153.541 Q22.6553,153.541 23.2488,153.2712 Q23.8423,153.0015 24.4731,152.4204 Z " fill="#000000"/><text fill="#000000" font-family="sans-serif" font-size="12" lengthAdjust="spacing" textLength="134" x="36" y="153.5352">PizzeriaStyleStrasbourg</text><line style="stroke:#A80036;stroke-width:1.5;" x1="8" x2="172" y1="165" y2="165"/><text fill="#000000" font-family="sans-serif" font-size="11" lengthAdjust="spacing" textLength="63" x="13" y="179.6348">creerPizza()</text><!--MD5=[5aa41ad15a4ca5a42c9d9b899a205fab]
class PizzeriaStyleBrest--><rect codeLine="20" fill="#FEFECE" filter="url(#fo8hnl71teret)" height="52.9551" id="PizzeriaStyleBrest" style="stroke:#A80036;stroke-width:1.5;" width="133" x="208.5" y="133"/><ellipse cx="223.5" cy="149" fill="#ADD1B2" rx="11" ry="11" style="stroke:#A80036;stroke-width:1.0;"/><path d="M225.9731,155.1431 Q225.3921,155.4419 224.7529,155.5913 Q224.1138,155.7407 223.4082,155.7407 Q220.9014,155.7407 219.5815,154.0889 Q218.2617,152.437 218.2617,149.3159 Q218.2617,146.1865 219.5815,144.5347 Q220.9014,142.8828 223.4082,142.8828 Q224.1138,142.8828 224.7612,143.0322 Q225.4087,143.1816 225.9731,143.4805 L225.9731,146.2031 Q225.3423,145.6221 224.7488,145.3523 Q224.1553,145.0825 223.5244,145.0825 Q222.1797,145.0825 221.4949,146.1492 Q220.8101,147.2158 220.8101,149.3159 Q220.8101,151.4077 221.4949,152.4744 Q222.1797,153.541 223.5244,153.541 Q224.1553,153.541 224.7488,153.2712 Q225.3423,153.0015 225.9731,152.4204 Z " fill="#000000"/><text fill="#000000" font-family="sans-serif" font-size="12" lengthAdjust="spacing" textLength="101" x="237.5" y="153.5352">PizzeriaStyleBrest</text><line style="stroke:#A80036;stroke-width:1.5;" x1="209.5" x2="340.5" y1="165" y2="165"/><text fill="#000000" font-family="sans-serif" font-size="11" lengthAdjust="spacing" textLength="63" x="214.5" y="179.6348">creerPizza()</text><!--MD5=[73a798513c3ad909bf1d28b90f5c6e2e]
reverse link p to PizzeriaStyleStrasbourg--><path d="M144.17,89.31 C132.52,104.2 120.14,120.01 110.16,132.75 " fill="none" id="p-backto-PizzeriaStyleStrasbourg" style="stroke:#A80036;stroke-width:1.0;"/><polygon fill="none" points="139.02,84.54,156.86,73.11,150.04,93.17,139.02,84.54" style="stroke:#A80036;stroke-width:1.0;"/><!--MD5=[52eb9e34decacfd415bef80ff731c0cd]
reverse link p to PizzeriaStyleBrest--><path d="M219.86,88.83 C231.75,103.86 244.42,119.87 254.62,132.75 " fill="none" id="p-backto-PizzeriaStyleBrest" style="stroke:#A80036;stroke-width:1.0;"/><polygon fill="none" points="214.34,93.13,207.41,73.11,225.31,84.45,214.34,93.13" style="stroke:#A80036;stroke-width:1.0;"/><!--MD5=[90f4cfc741c9d30960d0fc7c9ccb431d]
@startuml

'- - - - - - - - - - - - - - - - - - - - - - - - - - - - - - - - - - -
' UML concepts illustrated
' JMB 2014
'- - - - - - - - - - - - - - - - - - - - - - - - - - - - - - - - - - -

'hide circle
hide empty members
hide empty methods

abstract class p as "Pizzeria" {
  {abstract} creerPizza()
  commanderPizza()
}

class PizzeriaStyleStrasbourg extends p {
  creerPizza()
}

class PizzeriaStyleBrest extends p {
  creerPizza()
}


@enduml

@startuml


hide empty members
hide empty methods

abstract class p as "Pizzeria" {
  {abstract} creerPizza()
  commanderPizza()
}

class PizzeriaStyleStrasbourg extends p {
  creerPizza()
}

class PizzeriaStyleBrest extends p {
  creerPizza()
}


@enduml

PlantUML version 1.2021.14(Fri Nov 12 17:46:50 CET 2021)
(GPL source distribution)
Java Runtime: OpenJDK Runtime Environment
JVM: OpenJDK 64-Bit Server VM
Default Encoding: UTF-8
Language: fr
Country: FR
--></g></svg>