<?xml version="1.0" encoding="UTF-8" standalone="no"?><svg xmlns="http://www.w3.org/2000/svg" xmlns:xlink="http://www.w3.org/1999/xlink" contentScriptType="application/ecmascript" contentStyleType="text/css" height="318px" preserveAspectRatio="none" style="width:393px;height:318px;" version="1.1" viewBox="0 0 393 318" width="393px" zoomAndPan="magnify"><defs><filter height="300%" id="ft7ur67" width="300%" x="-1" y="-1"><feGaussianBlur result="blurOut" stdDeviation="2.0"/><feColorMatrix in="blurOut" result="blurOut2" type="matrix" values="0 0 0 0 0 0 0 0 0 0 0 0 0 0 0 0 0 0 .4 0"/><feOffset dx="4.0" dy="4.0" in="blurOut2" result="blurOut3"/><feBlend in="SourceGraphic" in2="blurOut3" mode="normal"/></filter></defs><g><!--class Contexte--><rect fill="#FEFECE" filter="url(#ft7ur67)" height="68.7656" style="stroke: #A80036; stroke-width: 1.5;" width="192" x="114" y="8.5"/><text fill="#000000" font-family="sans-serif" font-size="12" lengthAdjust="spacingAndGlyphs" textLength="48" x="186" y="25.957">Contexte</text><line style="stroke: #A80036; stroke-width: 1.5;" x1="115" x2="305" y1="33.5938" y2="33.5938"/><rect fill="none" height="6" style="stroke: #C82930; stroke-width: 1.0;" width="6" x="122" y="43.0117"/><text fill="#000000" font-family="sans-serif" font-size="11" lengthAdjust="spacingAndGlyphs" textLength="91" x="134" y="49.0127">Strategie  strategie</text><line style="stroke: #A80036; stroke-width: 1.0;" x1="115" x2="305" y1="55.4297" y2="55.4297"/><ellipse cx="125" cy="67.8477" fill="#84BE84" rx="3" ry="3" style="stroke: #038048; stroke-width: 1.0;"/><text fill="#000000" font-family="sans-serif" font-size="11" lengthAdjust="spacingAndGlyphs" textLength="166" x="134" y="70.8486">contexte() {strategie.algorithme();}</text><!--class Strategie--><rect fill="#FEFECE" filter="url(#ft7ur67)" height="54.9297" style="stroke: #A80036; stroke-width: 1.5;" width="86" x="167" y="138.5"/><text fill="#000000" font-family="sans-serif" font-size="12" font-style="italic" lengthAdjust="spacingAndGlyphs" textLength="49" x="185.5" y="155.957">Strategie</text><line style="stroke: #A80036; stroke-width: 1.5;" x1="168" x2="252" y1="163.5938" y2="163.5938"/><line style="stroke: #A80036; stroke-width: 1.5;" x1="168" x2="252" y1="171.5938" y2="171.5938"/><ellipse cx="178" cy="184.0117" fill="#84BE84" rx="3" ry="3" style="stroke: #038048; stroke-width: 1.0;"/><text fill="#000000" font-family="sans-serif" font-size="11" font-style="italic" lengthAdjust="spacingAndGlyphs" textLength="60" x="187" y="187.0127">algorithme()</text><!--class StrategieConcreteA--><rect fill="#FEFECE" filter="url(#ft7ur67)" height="54.9297" style="stroke: #A80036; stroke-width: 1.5;" width="112" x="6" y="254.5"/><text fill="#000000" font-family="sans-serif" font-size="12" lengthAdjust="spacingAndGlyphs" textLength="106" x="9" y="271.957">StrategieConcreteA</text><line style="stroke: #A80036; stroke-width: 1.5;" x1="7" x2="117" y1="279.5938" y2="279.5938"/><line style="stroke: #A80036; stroke-width: 1.5;" x1="7" x2="117" y1="287.5938" y2="287.5938"/><ellipse cx="17" cy="300.0117" fill="#84BE84" rx="3" ry="3" style="stroke: #038048; stroke-width: 1.0;"/><text fill="#000000" font-family="sans-serif" font-size="11" lengthAdjust="spacingAndGlyphs" textLength="57" x="26" y="303.0127">algorithme()</text><!--class StrategieConcreteB--><rect fill="#FEFECE" filter="url(#ft7ur67)" height="54.9297" style="stroke: #A80036; stroke-width: 1.5;" width="113" x="153.75" y="254.5"/><text fill="#000000" font-family="sans-serif" font-size="12" lengthAdjust="spacingAndGlyphs" textLength="107" x="156.75" y="271.957">StrategieConcreteB</text><line style="stroke: #A80036; stroke-width: 1.5;" x1="154.75" x2="265.75" y1="279.5938" y2="279.5938"/><line style="stroke: #A80036; stroke-width: 1.5;" x1="154.75" x2="265.75" y1="287.5938" y2="287.5938"/><ellipse cx="164.75" cy="300.0117" fill="#84BE84" rx="3" ry="3" style="stroke: #038048; stroke-width: 1.0;"/><text fill="#000000" font-family="sans-serif" font-size="11" lengthAdjust="spacingAndGlyphs" textLength="57" x="173.75" y="303.0127">algorithme()</text><!--class C--><rect fill="#FEFECE" filter="url(#ft7ur67)" height="54.9297" style="stroke: #A80036; stroke-width: 1.5;" width="83" x="301.75" y="254.5"/><text fill="#000000" font-family="sans-serif" font-size="12" lengthAdjust="spacingAndGlyphs" textLength="9" x="338.75" y="271.957">...</text><line style="stroke: #A80036; stroke-width: 1.5;" x1="302.75" x2="383.75" y1="279.5938" y2="279.5938"/><line style="stroke: #A80036; stroke-width: 1.5;" x1="302.75" x2="383.75" y1="287.5938" y2="287.5938"/><ellipse cx="312.75" cy="300.0117" fill="#84BE84" rx="3" ry="3" style="stroke: #038048; stroke-width: 1.0;"/><text fill="#000000" font-family="sans-serif" font-size="11" lengthAdjust="spacingAndGlyphs" textLength="57" x="321.75" y="303.0127">algorithme()</text><path d="M159.398,205.977 C138.659,221.952 115.187,240.0317 96.482,254.4395 " fill="none" style="stroke: #A80036; stroke-width: 1.0;"/><polygon fill="none" points="155.184,200.387,175.301,193.728,163.728,211.4781,155.184,200.387" style="stroke: #A80036; stroke-width: 1.0;"/><path d="M210,214.1952 C210,227.9342 210,242.4568 210,254.4395 " fill="none" style="stroke: #A80036; stroke-width: 1.0;"/><polygon fill="none" points="203,213.728,210,193.728,217,213.7279,203,213.728" style="stroke: #A80036; stroke-width: 1.0;"/><path d="M256.584,206.929 C274.944,222.6666 295.537,240.317 312.013,254.4395 " fill="none" style="stroke: #A80036; stroke-width: 1.0;"/><polygon fill="none" points="251.812,212.0586,241.183,193.728,260.923,201.429,251.812,212.0586" style="stroke: #A80036; stroke-width: 1.0;"/><path d="M210,77.705 C210,95.069 210,116.123 210,133.204 " fill="none" style="stroke: #A80036; stroke-width: 1.0;"/><polygon fill="#A80036" points="210,138.369,214,129.369,210,133.369,206,129.369,210,138.369" style="stroke: #A80036; stroke-width: 1.0;"/><text fill="#000000" font-family="sans-serif" font-size="13" lengthAdjust="spacingAndGlyphs" textLength="58" x="145.0938" y="127.6939">+strategie</text></g></svg>